<svg
  height="64"
  viewBox="0 0 64 64"
  width="64"
  xmlns="http://www.w3.org/2000/svg"
>
  <title>Dota logo dark theme favicon</title>
  <rect fill="#121212" height="56" rx="14" width="56" x="4" y="4" />
  <rect fill="none" height="55" rx="13.5" stroke="#2A2A2A" width="55" x="4.5" y="4.5" />
  <path
    d="M53.28 13.92V11.36c0-.707-.572-1.28-1.28-1.28h-5.12c-.507 0-.914.034-1.28.128v-.128c0-.707-.572-1.28-1.28-1.28h-7.68c-2.22 0-3.022 1.26-3.493 2.56h-1.04c-.298-.398-.588-.913-.588-1.28 0-.707-.572-1.28-1.28-1.28H21.36c-.654 0-1.203.503-1.274 1.152-.029.269-.573 1.408-1.42 1.408H15.16c-.083-.098-.204-.282-.307-.516-.204-.464-.665-.764-1.173-.764H1.28C.572 10.08 0 10.653 0 11.36V21.6c0 3.613 1.056 8.188 1.279 9.111l-.01 1.94-.868.82C.145 33.872 0 34.208 0 34.56v5.12c0 .34.134.665.375.906L1.28 41.49v5.663l-1.214 3.643c-.078.232-.087.479-.028.716l1.19 4.76-1.16 3.486c-.131.39-.065.821.176 1.153.24.332.626.531 1.036.531H19.2c.34 0 .665-.134.905-.375l.116-.116c.68.929 1.626 1.769 2.821 1.769h3.84c.943 0 1.767-.411 2.492-.774.496-.248 1.01-.505 1.347-.505h6.4c.34 0 .665-.134.905-.375l.31-.31c.08.102.157.203.233.3.628.821 1.277 1.945 2.39 1.945h6.4c.707 0 1.28-.572 1.28-1.28v-.921l3.53.88c.382.098.789.009 1.1-.236.31-.243.491-.619.49-1.015-.002-.125-.081-12.684 0-19.174.004-.346-.132-.677-.375-.921l-.895-.894v-5.87c0-.34-.134-.665-.375-.906l-.627-.627.774-1.549 1.133-1.133c.24-.24.375-.565.375-.905l-.019-6.414c0-.104-.013-.206-.037-.307l-1.146-4.648 1.069-2.138c.09-.178.136-.376.136-.568ZM38.514 19.04l3.896 2.56-1.3 7.68-10.353-7.68 7.757-2.56ZM14.08 52.48l-5.12-3.84 2.56-8.96 10.24 10.24-7.68 2.56Zm27.136-1.28h-5.973L8.96 20.387l4.779-1.185L44.8 42.903l-3.584 8.297Z"
    fill="#FF5A4E"
    transform="translate(5.76 2.56) scale(.96)"
  />
</svg>
